HIERARCHY
ROOT Hips
{
  OFFSET 5.84602e-005 68.8428 3.50346
  CHANNELS 6 Xposition Yposition Zposition Zrotation Xrotation Yrotation
  JOINT Spine
  {
    OFFSET 0 8.597 -4.6522
    CHANNELS 3 Zrotation Xrotation Yrotation
    JOINT Spine1
    {
      OFFSET 0 7.8454 0.4098
      CHANNELS 3 Zrotation Xrotation Yrotation
      JOINT Spine2
      {
        OFFSET 0 9.7078 -2.1609
        CHANNELS 3 Zrotation Xrotation Yrotation
        JOINT Neck
        {
          OFFSET 0 21.8761 -0.4549
          CHANNELS 3 Zrotation Xrotation Yrotation
          JOINT Head
          {
            OFFSET 0 12.3537 3.3602
            CHANNELS 3 Zrotation Xrotation Yrotation
            End Site
            {
              OFFSET 0.0001 18.9506 0.5657
            }
          }
        }
        JOINT LeftShoulder
        {
          OFFSET 2.2086 21.1115 7.2329
          CHANNELS 3 Zrotation Xrotation Yrotation
          JOINT LeftArm
          {
            OFFSET 13.1193 3.0282 -4.8998
            CHANNELS 3 Zrotation Xrotation Yrotation
            JOINT LeftForeArm
            {
              OFFSET 27.4081 -0.0973053 -0.2375
              CHANNELS 3 Zrotation Xrotation Yrotation
              JOINT LeftHand
              {
                OFFSET 22.8641 0.0662994 -0.1369
                CHANNELS 3 Zrotation Xrotation Yrotation
                JOINT LeftHandIndex1
                {
                  OFFSET 8.8614 0.775009 2.4612
                  CHANNELS 3 Zrotation Xrotation Yrotation
                  JOINT LeftHandIndex2
                  {
                    OFFSET 3.3146 -0.808304 0.5841
                    CHANNELS 3 Zrotation Xrotation Yrotation
                    JOINT LeftHandIndex3
                    {
                      OFFSET 2.2628 -0.552002 0.3989
                      CHANNELS 3 Zrotation Xrotation Yrotation
                      End Site
                      {
                        OFFSET 1.6102 -0.4807 0.2612
                      }
                    }
                  }
                }
                JOINT LeftHandMiddle1
                {
                  OFFSET 8.9937 0.895004 0.2143
                  CHANNELS 3 Zrotation Xrotation Yrotation
                  JOINT LeftHandMiddle2
                  {
                    OFFSET 4.0984 0.0113983 -0.0242
                    CHANNELS 3 Zrotation Xrotation Yrotation
                    JOINT LeftHandMiddle3
                    {
                      OFFSET 2.2716 0.00689697 -0.0138001
                      CHANNELS 3 Zrotation Xrotation Yrotation
                      End Site
                      {
                        OFFSET 2.0404 -0.1441 0.0027
                      }
                    }
                  }
                }
                JOINT LeftHandRing1
                {
                  OFFSET 8.5234 0.597198 -2.0164
                  CHANNELS 3 Zrotation Xrotation Yrotation
                  JOINT LeftHandRing2
                  {
                    OFFSET 3.7188 -0.188293 -0.2328
                    CHANNELS 3 Zrotation Xrotation Yrotation
                    JOINT LeftHandRing3
                    {
                      OFFSET 2.1191 -0.106598 -0.1332
                      CHANNELS 3 Zrotation Xrotation Yrotation
                      End Site
                      {
                        OFFSET 1.8737 -0.2304 -0.0886
                      }
                    }
                  }
                }
                JOINT LeftHandPinky1
                {
                  OFFSET 7.9094 -0.601089 -3.4825
                  CHANNELS 3 Zrotation Xrotation Yrotation
                  JOINT LeftHandPinky2
                  {
                    OFFSET 2.2874 -0.477005 -0.6314
                    CHANNELS 3 Zrotation Xrotation Yrotation
                    JOINT LeftHandPinky3
                    {
                      OFFSET 1.6774 -0.349396 -0.4633
                      CHANNELS 3 Zrotation Xrotation Yrotation
                      End Site
                      {
                        OFFSET 1.4888 -0.4091 -0.3416
                      }
                    }
                  }
                }
                JOINT LeftHandThumb1
                {
                  OFFSET 1.833 -1.3875 1.3896
                  CHANNELS 3 Zrotation Xrotation Yrotation
                  JOINT LeftHandThumb2
                  {
                    OFFSET 3.4129 -1.121 2.5732
                    CHANNELS 3 Zrotation Xrotation Yrotation
                    JOINT LeftHandThumb3
                    {
                      OFFSET 2.2474 -0.804199 1.6192
                      CHANNELS 3 Zrotation Xrotation Yrotation
                      End Site
                      {
                        OFFSET 1.6527 -0.5689 1.1317
                      }
                    }
                  }
                }
              }
            }
          }
        }
        JOINT RightShoulder
        {
          OFFSET -2.2086 21.1115 7.2329
          CHANNELS 3 Zrotation Xrotation Yrotation
          JOINT RightArm
          {
            OFFSET -13.1216 3.0287 -4.9007
            CHANNELS 3 Zrotation Xrotation Yrotation
            JOINT RightForeArm
            {
              OFFSET -27.4081 -0.0973053 -0.2375
              CHANNELS 3 Zrotation Xrotation Yrotation
              JOINT RightHand
              {
                OFFSET -22.8641 0.0664063 -0.1369
                CHANNELS 3 Zrotation Xrotation Yrotation
                JOINT RightHandIndex1
                {
                  OFFSET -8.8614 0.774994 2.4612
                  CHANNELS 3 Zrotation Xrotation Yrotation
                  JOINT RightHandIndex2
                  {
                    OFFSET -3.3146 -0.808304 0.5841
                    CHANNELS 3 Zrotation Xrotation Yrotation
                    JOINT RightHandIndex3
                    {
                      OFFSET -2.2628 -0.552002 0.3989
                      CHANNELS 3 Zrotation Xrotation Yrotation
                      End Site
                      {
                        OFFSET -1.6102 -0.4807 0.2612
                      }
                    }
                  }
                }
                JOINT RightHandMiddle1
                {
                  OFFSET -8.9937 0.894989 0.2143
                  CHANNELS 3 Zrotation Xrotation Yrotation
                  JOINT RightHandMiddle2
                  {
                    OFFSET -4.0984 0.0113983 -0.0242
                    CHANNELS 3 Zrotation Xrotation Yrotation
                    JOINT RightHandMiddle3
                    {
                      OFFSET -2.2716 0.00691223 -0.0138001
                      CHANNELS 3 Zrotation Xrotation Yrotation
                      End Site
                      {
                        OFFSET -2.0404 -0.1441 0.0027
                      }
                    }
                  }
                }
                JOINT RightHandRing1
                {
                  OFFSET -8.5234 0.597198 -2.0164
                  CHANNELS 3 Zrotation Xrotation Yrotation
                  JOINT RightHandRing2
                  {
                    OFFSET -3.7188 -0.188309 -0.2328
                    CHANNELS 3 Zrotation Xrotation Yrotation
                    JOINT RightHandRing3
                    {
                      OFFSET -2.1191 -0.106598 -0.1332
                      CHANNELS 3 Zrotation Xrotation Yrotation
                      End Site
                      {
                        OFFSET -1.8737 -0.2304 -0.0886
                      }
                    }
                  }
                }
                JOINT RightHandPinky1
                {
                  OFFSET -7.9094 -0.601105 -3.4825
                  CHANNELS 3 Zrotation Xrotation Yrotation
                  JOINT RightHandPinky2
                  {
                    OFFSET -2.2874 -0.477005 -0.6314
                    CHANNELS 3 Zrotation Xrotation Yrotation
                    JOINT RightHandPinky3
                    {
                      OFFSET -1.6774 -0.349396 -0.4633
                      CHANNELS 3 Zrotation Xrotation Yrotation
                      End Site
                      {
                        OFFSET -1.4888 -0.4091 -0.3416
                      }
                    }
                  }
                }
                JOINT RightHandThumb1
                {
                  OFFSET -1.833 -1.38751 1.3896
                  CHANNELS 3 Zrotation Xrotation Yrotation
                  JOINT RightHandThumb2
                  {
                    OFFSET -3.41299 -1.12099 2.5732
                    CHANNELS 3 Zrotation Xrotation Yrotation
                    JOINT RightHandThumb3
                    {
                      OFFSET -2.24741 -0.804108 1.6192
                      CHANNELS 3 Zrotation Xrotation Yrotation
                      End Site
                      {
                        OFFSET -1.6527 -0.5689 1.1317
                      }
                    }
                  }
                }
              }
            }
          }
        }
      }
    }
  }
  JOINT RightUpLeg
  {
    OFFSET -9.1966 3.8861 -0.7581
    CHANNELS 3 Zrotation Xrotation Yrotation
    JOINT RightLeg
    {
      OFFSET -0.7359 -41.0265 0
      CHANNELS 3 Zrotation Xrotation Yrotation
      JOINT RightFoot
      {
        OFFSET 0 -40.2855 0
        CHANNELS 3 Zrotation Xrotation Yrotation
        JOINT RightToeBase
        {
          OFFSET 0 -5.6122 11.7359
          CHANNELS 3 Zrotation Xrotation Yrotation
          End Site
          {
            OFFSET 0 0 7.8731
          }
        }
      }
    }
  }
  JOINT LeftUpLeg
  {
    OFFSET 9.1965 3.8864 -0.7581
    CHANNELS 3 Zrotation Xrotation Yrotation
    JOINT LeftLeg
    {
      OFFSET 0.7359 -41.0268 0
      CHANNELS 3 Zrotation Xrotation Yrotation
      JOINT LeftFoot
      {
        OFFSET 0 -40.2855 0
        CHANNELS 3 Zrotation Xrotation Yrotation
        JOINT LeftToeBase
        {
          OFFSET 0 -5.6122 11.7359
          CHANNELS 3 Zrotation Xrotation Yrotation
          End Site
          {
            OFFSET 0 0 7.8731
          }
        }
      }
    }
  }
}
MOTION
Frames:	4
Frame Time:	0.0333333
-6.94529 14.7737 38.9884 -180 84.8772 180 -0.112004 -3.20866 -0.423954 -0.248413 -6.41636 -0.856222 -0.248414 -6.41639 -0.856222 -8.48851e-006 -22.6016 -5.56279e-006 -3.66144e-007 -7.54119 -6.27218e-008 1.29797 -11.9557 -37.7788 4.18148 -0.648303 -12.549 25.8837 -14.872 -25.864 18.1987 -9.04578 -5.84474 3.51733e-032 -1.68967e-015 1.19271e-015 1.24141e-032 -8.94531e-016 7.95139e-016 1.13796e-032 -1.09332e-015 5.96354e-016 3.51733e-032 -1.68967e-015 1.19271e-015 -0.0146646 -8.86627e-005 -1.02204e-005 -3.18055e-015 -7.95139e-016 3.97569e-016 3.51733e-032 -1.68967e-015 1.19271e-015 -0.0187252 -0.0011735 5.48383e-005 -4.84608e-007 -4.44898e-007 9.22733e-008 3.51733e-032 -1.68967e-015 1.19271e-015 -0.0122355 -0.00323809 0.00067174 -3.44836e-033 -4.96962e-016 -3.97569e-016 3.51733e-032 -1.68967e-015 1.19271e-015 1.24141e-032 -8.94531e-016 7.95139e-016 1.13796e-032 -1.09332e-015 5.96354e-016 -0.585372 -12.2538 38.7805 -4.39052 -0.538659 12.9402 -22.3197 -11.7123 27.5636 -17.7532 -8.55707 4.44176 3.18055e-015 -2.98177e-016 -1.98785e-016 3.18055e-015 9.93923e-017 -1.98785e-016 3.18055e-015 9.93923e-017 -0 3.18055e-015 -2.98177e-016 -1.98785e-016 0.0150874 -9.49315e-005 -6.88401e-006 -3.18055e-015 -2.98177e-016 3.97569e-016 3.18055e-015 -2.98177e-016 -1.98785e-016 0.0189626 -0.00118877 -5.82489e-005 6.65231e-007 -2.00012e-007 -6.332e-008 3.18055e-015 -2.98177e-016 -1.98785e-016 0.0121607 -0.00321991 -0.000671086 9.54166e-015 -2.98177e-016 1.98785e-016 3.18055e-015 -2.98177e-016 -1.98785e-016 3.18055e-015 9.93923e-017 -1.98785e-016 3.18055e-015 9.93923e-017 -0 2.97438 -42.8585 -0.339277 0.766136 44.3289 -0.0738955 -8.47787 8.54638 0.213789 -2.38542e-015 -6.36111e-015 3.97569e-016 -3.03238 -42.8985 0.440984 0.290173 48.2443 -0.510313 8.42623 8.48947 -0.191622 -2.47794e-007 -1.52625e-008 -3.47054e-007 
-6.94591 15.0005 38.8991 -180 84.2498 180 -0.110017 -3.46459 -0.425198 -0.246521 -6.92823 -0.859438 -0.24652 -6.92826 -0.859438 -6.76882e-006 -22.2009 1.71791e-007 3.49232e-007 -7.18551 1.28588e-007 1.10471 -11.5946 -37.9585 4.18149 -0.648307 -12.549 25.7952 -14.8286 -25.7721 18.0398 -8.85852 -6.05972 -1.19616e-006 -1.76643e-008 2.25694e-008 -1.17849e-006 -1.21382e-006 -1.39445e-007 1.76643e-008 -1.19616e-006 -1.62014e-007 -1.19616e-006 -1.76643e-008 2.25694e-008 -0.0146028 -9.0582e-005 -4.80725e-006 1.76671e-008 -1.19614e-006 -1.62167e-007 -1.19616e-006 -1.76643e-008 2.25694e-008 -0.0187447 -0.00117627 5.76038e-005 1.76657e-008 -1.19613e-006 -1.6221e-007 -1.19616e-006 -1.76643e-008 2.25694e-008 -0.0123355 -0.0032675 0.000686815 1.76549e-008 -1.19614e-006 -1.62144e-007 -1.19616e-006 -1.76643e-008 2.25694e-008 -1.17849e-006 -1.21382e-006 -1.39445e-007 1.76643e-008 -1.19616e-006 -1.62014e-007 -0.408828 -11.8909 38.9698 -4.39051 -0.538653 12.9402 -22.2322 -11.6656 27.4485 -17.5926 -8.36993 4.66468 -6.70136e-007 1.99087e-007 6.54386e-008 3.18055e-015 -6.95746e-016 3.97569e-016 9.54166e-015 -2.98177e-016 1.98785e-016 -6.70136e-007 1.99087e-007 6.54386e-008 0.0149832 -9.27096e-005 -1.16762e-005 0 1.59028e-015 -0 -6.70136e-007 1.99087e-007 6.54386e-008 0.018975 -0.00119002 -6.12536e-005 -4.13804e-033 -5.96354e-016 -3.97569e-016 -6.70136e-007 1.99087e-007 6.54386e-008 0.0122587 -0.00324594 -0.000672511 -3.44836e-034 -9.93923e-017 -1.98785e-016 -6.70136e-007 1.99087e-007 6.54386e-008 3.18055e-015 -6.95746e-016 3.97569e-016 9.54166e-015 -2.98177e-016 1.98785e-016 3.0082 -43.7057 -0.324261 0.772006 44.3087 -0.0768428 -8.478 8.54551 0.213735 3.90012e-007 -1.99493e-008 5.07178e-007 -3.0661 -43.7462 0.427234 0.297849 48.2713 -0.514684 8.42594 8.48802 -0.191494 -1.59028e-015 3.18055e-015 -0 
-6.94654 15.2276 38.8107 -180 83.6225 180 -0.108022 -3.72034 -0.426393 -0.24463 -7.43972 -0.862568 -0.24463 -7.43973 -0.862567 1.00343e-006 -21.8002 2.17619e-006 1.53687e-008 -6.82983 3.08524e-007 0.912851 -11.233 -38.1368 4.18149 -0.64831 -12.549 25.7066 -14.7853 -25.6801 17.8817 -8.67067 -6.27412 -3.18055e-015 1.14301e-015 -0 -3.18055e-015 1.14301e-015 -3.97569e-016 -3.18055e-015 1.04362e-015 -0 -3.18055e-015 1.14301e-015 -0 -0.0145963 -8.78459e-005 -2.53485e-006 -3.18055e-015 4.47266e-016 3.97569e-016 -3.18055e-015 1.14301e-015 -0 -0.0188151 -0.00118083 6.14149e-005 3.18055e-015 -4.96962e-016 1.98785e-016 -3.18055e-015 1.14301e-015 -0 -0.0122843 -0.0032523 0.000676086 9.54166e-015 -1.59028e-015 3.97569e-016 -3.18055e-015 1.14301e-015 -0 -3.18055e-015 1.14301e-015 -3.97569e-016 -3.18055e-015 1.04362e-015 -0 -0.233766 -11.5274 39.1578 -4.39053 -0.538657 12.9402 -22.1445 -11.6191 27.3334 -17.4329 -8.18218 4.88695 1.90833e-014 -1.26228e-014 1.19271e-015 1.90833e-014 -1.3418e-014 9.93923e-016 1.90833e-014 -1.33186e-014 1.39149e-015 1.90833e-014 -1.26228e-014 1.19271e-015 0.015053 -9.43202e-005 -2.8042e-006 3.18055e-015 1.2921e-015 -1.98785e-016 1.90833e-014 -1.26228e-014 1.19271e-015 0.0190909 -0.00119746 -6.63734e-005 6.36111e-015 -1.19271e-015 -1.98785e-016 1.90833e-014 -1.26228e-014 1.19271e-015 0.0122834 -0.00325049 -0.000674278 6.72222e-007 -1.9772e-007 -6.77052e-008 1.90833e-014 -1.26228e-014 1.19271e-015 1.90833e-014 -1.3418e-014 9.93923e-016 1.90833e-014 -1.33186e-014 1.39149e-015 3.0428 -44.5527 -0.308343 0.777879 44.2885 -0.0797972 -8.47815 8.54467 0.213684 -4.29505e-007 7.45307e-009 -2.07222e-007 -3.10062 -44.5936 0.412568 0.30554 48.298 -0.519071 8.42567 8.48665 -0.191373 2.21744e-007 -1.98803e-008 -4.22077e-007 
-6.94716 15.4551 38.7232 -180 82.9952 180 -0.106021 -3.97577 -0.427538 -0.242741 -7.95061 -0.86561 -0.242741 -7.95066 -0.86561 2.25686e-008 -21.3996 2.63525e-006 -3.97395e-007 -6.47419 1.33942e-007 0.722401 -10.8708 -38.3135 4.1815 -0.648296 -12.549 25.618 -14.7422 -25.5881 17.7244 -8.48225 -6.48779 -1.27222e-014 8.94531e-016 -1.39149e-015 -1.59028e-014 1.78906e-015 -9.93923e-016 -1.27222e-014 1.73937e-015 -7.95139e-016 -1.27222e-014 8.94531e-016 -1.39149e-015 -0.0145676 -8.67516e-005 -5.59069e-006 -3.18055e-015 0 1.98785e-016 -1.27222e-014 8.94531e-016 -1.39149e-015 -0.0187754 -0.00117788 5.94773e-005 4.93437e-007 4.41779e-007 -9.83762e-008 -1.27222e-014 8.94531e-016 -1.39149e-015 -0.0121286 -0.00321123 0.000671651 -6.36111e-015 7.45443e-016 -3.97569e-016 -1.27222e-014 8.94531e-016 -1.39149e-015 -1.59028e-014 1.78906e-015 -9.93923e-016 -1.27222e-014 1.73937e-015 -7.95139e-016 -0.0601426 -11.1634 39.3443 -4.39052 -0.538654 12.9402 -22.0568 -11.5727 27.2181 -17.274 -7.99383 5.10856 1.03451e-032 -1.49089e-015 3.97569e-016 2.22637e-006 1.53979e-006 -8.61442e-009 6.76289e-007 -1.96843e-007 -7.03272e-008 1.03451e-032 -1.49089e-015 3.97569e-016 0.0150244 -9.11839e-005 3.349e-006 -3.18055e-015 2.98177e-016 1.98785e-016 1.03451e-032 -1.49089e-015 3.97569e-016 0.0190797 -0.0011975 -6.01857e-005 6.74635e-007 -1.96751e-007 -7.02963e-008 1.03451e-032 -1.49089e-015 3.97569e-016 0.0122109 -0.00323281 -0.000681671 6.7523e-007 -1.96566e-007 -7.02662e-008 1.03451e-032 -1.49089e-015 3.97569e-016 2.22637e-006 1.53979e-006 -8.61442e-009 6.76289e-007 -1.96843e-007 -7.03272e-008 3.07824 -45.3995 -0.291481 0.783752 44.2683 -0.0827516 -8.4783 8.5438 0.213629 -3.74848e-007 -2.35105e-008 5.6065e-007 -3.13597 -45.4408 0.396943 0.313234 48.3249 -0.523455 8.42539 8.48531 -0.191252 -1.11478e-007 4.00013e-006 -2.66632e-008 
